<svg width="22" height="22" viewBox="0 0 22 22" fill="none" xmlns="http://www.w3.org/2000/svg">
<path d="M8.09787 6.30075C8.67247 5.25738 8.48386 3.94057 7.63905 3.09895L5.6438 1.11081C5.13287 0.601712 4.45352 0.321289 3.73118 0.321289C3.00866 0.321289 2.3293 0.601712 1.81891 1.11046L1.44326 1.48459C1.22377 1.70348 1.05042 1.94474 0.927781 2.20244C-1.17924 6.63048 0.390365 12.7536 4.74495 17.0929C7.80503 20.1422 11.7489 21.8209 15.366 21.8206C16.8958 21.8206 18.3677 21.5202 19.6888 20.8961C19.9478 20.7737 20.1905 20.6006 20.4093 20.3821L20.7844 20.0087C21.8387 18.9576 21.8385 17.2478 20.7842 16.1974L18.7888 14.2089C17.9445 13.3673 16.6228 13.1795 15.5755 13.7516L12.5765 15.3911C12.1966 15.5988 11.7331 15.6019 11.3669 15.3974C10.3545 14.8341 9.41342 14.1222 8.56984 13.2816C7.72661 12.4414 7.01216 11.5036 6.44632 10.4942C6.24174 10.1295 6.2442 9.66793 6.45264 9.28891L8.09787 6.30075ZM5.19148 11.1928C5.82188 12.3173 6.61669 13.361 7.55361 14.2942C8.49088 15.2282 9.53799 16.0201 10.6658 16.6478C11.472 17.0967 12.4445 17.0964 13.2676 16.6471L16.2668 15.0075C16.7575 14.7393 17.3769 14.8275 17.7725 15.2215L19.768 17.21C20.2619 17.7023 20.2619 18.5034 19.768 18.9961L19.3927 19.3698C19.29 19.4719 19.1823 19.5503 19.0727 19.602C15.1679 21.4468 9.69361 19.9989 5.76118 16.0803C1.82856 12.1613 0.375105 6.70705 2.22632 2.81608C2.27843 2.70699 2.35703 2.59965 2.45967 2.4972L2.83514 2.12341C3.07446 1.88495 3.39273 1.75348 3.73118 1.75348C4.06962 1.75348 4.3879 1.88495 4.62739 2.12341L6.62282 4.11156C7.01865 4.50597 7.10708 5.12311 6.83775 5.61193L5.19235 8.60044C5.19235 8.60044 5.19235 8.60044 5.19217 8.60079C4.74126 9.42038 4.74092 10.3893 5.19148 11.1928Z" fill="#220959"/>
</svg>
