<svg width="24" height="19" viewBox="0 0 24 19" fill="none" xmlns="http://www.w3.org/2000/svg">
<path fill-rule="evenodd" clip-rule="evenodd" d="M21 18.8252H3C1.346 18.8252 0 17.484 0 15.8359V3.87871C0 2.23061 1.346 0.889404 3 0.889404H21C22.654 0.889404 24 2.23061 24 3.87871V15.8359C24 17.484 22.654 18.8252 21 18.8252ZM3 16.8324H21C21.551 16.8324 22 16.386 22 15.8359V4.08099L12.628 11.628C12.445 11.7765 12.223 11.8502 12 11.8502C11.777 11.8502 11.555 11.7765 11.372 11.628L2 4.08099V15.8359C2 16.386 2.449 16.8324 3 16.8324ZM20.308 2.88227H3.692L12 9.57234L20.308 2.88227Z" fill="#220959"/>
</svg>
