<svg width="17" height="24" viewBox="0 0 17 24" fill="none" xmlns="http://www.w3.org/2000/svg">
<path fill-rule="evenodd" clip-rule="evenodd" d="M9.11481 23.5841C8.93819 23.7379 8.71908 23.8143 8.49997 23.8143C8.28086 23.8143 8.06175 23.7379 7.88513 23.5841C7.56308 23.3043 -6.10352e-05 16.6572 -6.10352e-05 9.53156C-6.10352e-05 4.77034 3.81267 0.89624 8.49997 0.89624C13.1873 0.89624 17 4.77034 17 9.53156C17 16.6572 9.43686 23.3043 9.11481 23.5841ZM8.49997 2.80608C4.85535 2.80608 1.88883 5.82266 1.88883 9.53156C1.88883 14.69 6.75085 19.8666 8.49902 21.5607C10.2472 19.8647 15.1111 14.6805 15.1111 9.53156C15.1111 5.82266 12.1446 2.80608 8.49997 2.80608ZM8.49997 13.3808C6.41652 13.3808 4.72218 11.6677 4.72218 9.56116C4.72218 7.45461 6.41652 5.74149 8.49997 5.74149C10.5834 5.74149 12.2778 7.45461 12.2778 9.56116C12.2778 11.6677 10.5834 13.3808 8.49997 13.3808ZM8.49997 7.65133C7.45919 7.65133 6.61107 8.50884 6.61107 9.56116C6.61107 10.6144 7.45919 11.471 8.49997 11.471C9.54075 11.471 10.3889 10.6144 10.3889 9.56116C10.3889 8.50884 9.54075 7.65133 8.49997 7.65133Z" fill="#220959"/>
</svg>
