<svg width="64" height="64" viewBox="0 0 64 64" fill="none" xmlns="http://www.w3.org/2000/svg">
<path d="M38.8214 0.366125C38.5869 0.13175 38.269 0 37.9375 0H3.75C1.68225 0 0 1.68225 0 3.75V60.25C0 62.3177 1.68225 64 3.75 64H47.25C49.3177 64 51 62.3177 51 60.25V13.0625C51 12.731 50.8683 12.413 50.6339 12.1786L38.8214 0.366125ZM46.7321 11.8125H40.4375C39.7482 11.8125 39.1875 11.2517 39.1875 10.5625V4.26788L42.9599 8.04025L46.7321 11.8125ZM47.25 61.5H3.75C3.06075 61.5 2.5 60.9393 2.5 60.25V3.75C2.5 3.06075 3.06075 2.5 3.75 2.5H36.6875V10.5625C36.6875 12.6302 38.3698 14.3125 40.4375 14.3125H48.5V60.25C48.5 60.9393 47.9393 61.5 47.25 61.5Z" fill="#220959"/>
<path d="M41.5 32.75H8C7.30975 32.75 6.75 33.3096 6.75 34C6.75 34.6904 7.30975 35.25 8 35.25H41.5C42.1903 35.25 42.75 34.6904 42.75 34C42.75 33.3096 42.1903 32.75 41.5 32.75Z" fill="#220959"/>
<path d="M36.5 40.75H8C7.30975 40.75 6.75 41.3096 6.75 42C6.75 42.6904 7.30975 43.25 8 43.25H36.5C37.1903 43.25 37.75 42.6904 37.75 42C37.75 41.3096 37.1903 40.75 36.5 40.75Z" fill="#220959"/>
<path d="M41.5 40.75C41.1712 40.75 40.8487 40.8837 40.6162 41.1162C40.3837 41.3487 40.25 41.6712 40.25 42C40.25 42.3288 40.3836 42.6513 40.6162 42.8838C40.8489 43.1163 41.1712 43.25 41.5 43.25C41.8288 43.25 42.1513 43.1163 42.3836 42.8838C42.6161 42.6513 42.75 42.3288 42.75 42C42.75 41.6712 42.6163 41.3487 42.3836 41.1162C42.1513 40.8837 41.8288 40.75 41.5 40.75Z" fill="#220959"/>
<path d="M60.0625 6.75H57.4375C55.2664 6.75 53.5 8.51638 53.5 10.6875V24C53.5 24.6904 54.0598 25.25 54.75 25.25C55.4402 25.25 56 24.6904 56 24V16H61.5V50H56V34C56 33.3096 55.4402 32.75 54.75 32.75C54.0598 32.75 53.5 33.3096 53.5 34V51.25C53.5 51.4294 53.5386 51.6066 53.6131 51.7697L57.5 60.2721V62.75C57.5 63.4404 58.0598 64 58.75 64C59.4402 64 60 63.4404 60 62.75V60.2721L63.8869 51.7696C63.9615 51.6065 64 51.4292 64 51.2499V10.6875C64 8.51638 62.2336 6.75 60.0625 6.75ZM56 13.5V10.6875C56 9.89488 56.6449 9.25 57.4375 9.25H60.0625C60.8551 9.25 61.5 9.89488 61.5 10.6875V13.5H56ZM58.75 56.9935L56.6959 52.5H60.8041L58.75 56.9935Z" fill="#220959"/>
<path d="M54.75 30.25C55.0788 30.25 55.4013 30.1163 55.6336 29.8838C55.8661 29.6513 56 29.3288 56 29C56 28.6712 55.8663 28.3487 55.6336 28.1162C55.4013 27.8837 55.0788 27.75 54.75 27.75C54.4212 27.75 54.0987 27.8837 53.8662 28.1162C53.6337 28.3487 53.5 28.6712 53.5 29C53.5 29.3288 53.6336 29.6513 53.8662 29.8838C54.0989 30.1163 54.4212 30.25 54.75 30.25Z" fill="#220959"/>
<path d="M8 27.9034H28.5C29.1903 27.9034 29.75 27.3438 29.75 26.6534V21.9888C29.75 18.2298 26.7474 15.1611 23.0149 15.0497C23.67 14.1098 24.0555 12.9688 24.0555 11.7388V10.5999C24.0555 7.39881 21.4511 4.79443 18.25 4.79443C15.0489 4.79443 12.4445 7.39868 12.4445 10.5998V11.7387C12.4445 12.9687 12.83 14.1097 13.4851 15.0496C9.75262 15.1609 6.75 18.2298 6.75 21.9888V26.6534C6.75 27.3438 7.30975 27.9034 8 27.9034ZM14.9445 10.5998C14.9445 8.77706 16.4274 7.29431 18.25 7.29431C20.0726 7.29431 21.5555 8.77718 21.5555 10.5998V11.7387C21.5555 13.5614 20.0726 15.0442 18.25 15.0442C16.4274 15.0442 14.9445 13.5613 14.9445 11.7387V10.5998ZM9.25 21.9888C9.25 19.5382 11.2437 17.5443 13.6945 17.5443H17V22.5392C17 23.2296 17.5597 23.7892 18.25 23.7892C18.9403 23.7892 19.5 23.2296 19.5 22.5392V17.5443H22.8055C25.2561 17.5443 27.25 19.5381 27.25 21.9888V25.4034H9.25V21.9888Z" fill="#220959"/>
<path d="M23.9583 51.6249H20.8392L20.5976 50.5218C20.4371 49.7883 19.8898 49.2014 19.1692 48.9903C18.4487 48.779 17.671 48.9776 17.1398 49.5088L15.2877 51.3609L14.6885 50.1919C14.39 49.6099 13.8261 49.2019 13.18 49.1004C12.5333 48.9989 11.872 49.2145 11.4093 49.6769L8.51209 52.5741C8.02396 53.0623 8.02396 53.8538 8.51209 54.342C8.75621 54.5861 9.07609 54.7081 9.39596 54.7081C9.71584 54.7081 10.0357 54.5861 10.2798 54.342L12.7436 51.8783L13.3428 53.0473C13.6413 53.6293 14.2052 54.0374 14.8515 54.1389C15.497 54.2405 16.1593 54.0248 16.6218 53.5624L18.3301 51.854L18.4738 52.5105C18.6786 53.4459 19.5221 54.1249 20.4797 54.1249H23.9582C24.6485 54.1249 25.2082 53.5653 25.2082 52.8749C25.2082 52.1845 24.6486 51.6249 23.9583 51.6249Z" fill="#220959"/>
</svg>
